name Run_40002_GRF.mot
datacolumns 19
datarows 18
range 1.885 1.902
endheader
time	     ground_force_vx	     ground_force_vy	     ground_force_vz	     ground_force_px	     ground_force_py	     ground_force_pz	   l_ground_force_vx	   l_ground_force_vy	   l_ground_force_vz	   l_ground_force_px	   l_ground_force_py	   l_ground_force_pz	     ground_torque_x	     ground_torque_y	     ground_torque_z	   l_ground_torque_x	   l_ground_torque_y	   l_ground_torque_z	
1.885	          0.00000000	          0.00000000	          0.00000000	          0.00000000	          0.00000000	          0.00000000	         -6.97174500	         17.24050300	          2.40868400	          1.02542500	          0.00000000	         -0.34604900	          0.00000000	          0.00000000	          0.00000000	          0.00000000	         -0.08369000	          0.00000000	
1.886	          0.00000000	          0.00000000	          0.00000000	          0.00000000	          0.00000000	          0.00000000	         -7.68928700	         20.13291900	          2.56860400	          1.03972100	          0.00000000	         -0.34816300	          0.00000000	          0.00000000	          0.00000000	          0.00000000	         -0.27255300	          0.00000000	
1.887	          0.00000000	          0.00000000	          0.00000000	          0.00000000	          0.00000000	          0.00000000	         -8.50110100	         23.44463500	          2.74950700	          1.05136800	          0.00000000	         -0.35004900	          0.00000000	          0.00000000	          0.00000000	          0.00000000	         -0.47038300	          0.00000000	
1.888	          0.00000000	          0.00000000	          0.00000000	          0.00000000	          0.00000000	          0.00000000	         -9.41264000	         27.22313300	          2.95375800	          1.06081500	          0.00000000	         -0.35173400	          0.00000000	          0.00000000	          0.00000000	          0.00000000	         -0.67679400	          0.00000000	
1.889	          0.00000000	          0.00000000	          0.00000000	          0.00000000	          0.00000000	          0.00000000	        -10.42784600	         31.51966100	          3.18383900	          1.06844900	          0.00000000	         -0.35323600	          0.00000000	          0.00000000	          0.00000000	          0.00000000	         -0.89135400	          0.00000000	
1.89	          0.00000000	          0.00000000	          0.00000000	          0.00000000	          0.00000000	          0.00000000	        -11.54882600	         36.38917200	          3.44232700	          1.07459500	          0.00000000	         -0.35457000	          0.00000000	          0.00000000	          0.00000000	          0.00000000	         -1.11358900	          0.00000000	
1.891	          0.00000000	          0.00000000	          0.00000000	          0.00000000	          0.00000000	          0.00000000	        -12.77555400	         41.89013700	          3.73187300	          1.07952500	          0.00000000	         -0.35574600	          0.00000000	          0.00000000	          0.00000000	          0.00000000	         -1.34298200	          0.00000000	
1.892	          0.00000000	          0.00000000	          0.00000000	          0.00000000	          0.00000000	          0.00000000	        -14.10560400	         48.08430100	          4.05517700	          1.08346800	          0.00000000	         -0.35677400	          0.00000000	          0.00000000	          0.00000000	          0.00000000	         -1.57897200	          0.00000000	
1.893	          0.00000000	          0.00000000	          0.00000000	          0.00000000	          0.00000000	          0.00000000	        -15.53395000	         55.03629700	          4.41495300	          1.08660900	          0.00000000	         -0.35766200	          0.00000000	          0.00000000	          0.00000000	          0.00000000	         -1.82096000	          0.00000000	
1.894	          0.00000000	          0.00000000	          0.00000000	          0.00000000	          0.00000000	          0.00000000	        -17.05283500	         62.81315200	          4.81389500	          1.08910300	          0.00000000	         -0.35841700	          0.00000000	          0.00000000	          0.00000000	          0.00000000	         -2.06830500	          0.00000000	
1.895	          0.00000000	          0.00000000	          0.00000000	          0.00000000	          0.00000000	          0.00000000	        -18.65172600	         71.48370400	          5.25463300	          1.09107400	          0.00000000	         -0.35904600	          0.00000000	          0.00000000	          0.00000000	          0.00000000	         -2.32033300	          0.00000000	
1.896	          0.00000000	          0.00000000	          0.00000000	          0.00000000	          0.00000000	          0.00000000	        -20.31737700	         81.11788200	          5.73968700	          1.09262000	          0.00000000	         -0.35955700	          0.00000000	          0.00000000	          0.00000000	          0.00000000	         -2.57633100	          0.00000000	
1.897	          0.00000000	          0.00000000	          0.00000000	          0.00000000	          0.00000000	          0.00000000	        -22.03401200	         91.78584300	          6.27141400	          1.09382400	          0.00000000	         -0.35995700	          0.00000000	          0.00000000	          0.00000000	          0.00000000	         -2.83555300	          0.00000000	
1.898	          0.00000000	          0.00000000	          0.00000000	          0.00000000	          0.00000000	          0.00000000	        -23.78361300	        103.55706000	          6.85195000	          1.09474600	          0.00000000	         -0.36025300	          0.00000000	          0.00000000	          0.00000000	          0.00000000	         -3.09722600	          0.00000000	
1.899	          0.00000000	          0.00000000	          0.00000000	          0.00000000	          0.00000000	          0.00000000	        -25.54636200	        116.49920700	          7.48314600	          1.09543800	          0.00000000	         -0.36045200	          0.00000000	          0.00000000	          0.00000000	          0.00000000	         -3.36054800	          0.00000000	
1.9	          0.00000000	          0.00000000	          0.00000000	          0.00000000	          0.00000000	          0.00000000	        -27.30118900	        130.67697100	          8.16650400	          1.09593600	          0.00000000	         -0.36056200	          0.00000000	          0.00000000	          0.00000000	          0.00000000	         -3.62469000	          0.00000000	
1.901	          0.00000000	          0.00000000	          0.00000000	          0.00000000	          0.00000000	          0.00000000	        -29.02644200	        146.15080300	          8.90310200	          1.09627100	          0.00000000	         -0.36058800	          0.00000000	          0.00000000	          0.00000000	          0.00000000	         -3.88880600	          0.00000000	
1.902	          0.00000000	          0.00000000	          0.00000000	          0.00000000	          0.00000000	          0.00000000	        -30.70064700	        162.97541800	          9.69352100	          1.09646500	          0.00000000	         -0.36053800	          0.00000000	          0.00000000	          0.00000000	          0.00000000	         -4.15203000	          0.00000000	
